<svg version="1.1" id="Layer_1" xmlns="http://www.w3.org/2000/svg" xmlns:xlink="http://www.w3.org/1999/xlink" x="0px" y="0px"
	 width="100%" viewBox="0 0 992 992" enable-background="new 0 0 992 992" xml:space="preserve">
<path fill="#000000" opacity="1.000000" stroke="none" 
	d="
M482.375000,993.000000 
	C484.755798,979.131775 485.818970,965.033508 487.647980,951.040649 
	C490.318939,930.606934 492.757416,910.142639 495.267242,889.688049 
	C497.777588,869.229431 500.225769,848.763184 502.752991,828.306702 
	C505.258972,808.021912 507.854614,787.748169 510.364288,767.463806 
	C512.506775,750.146912 514.566223,732.819824 516.693237,715.501038 
	C518.901428,697.521362 521.175598,679.549805 523.367737,661.568237 
	C525.841125,641.278931 528.223633,620.978577 530.704407,600.690247 
	C533.224731,580.077515 535.834045,559.475769 538.367371,538.864624 
	C539.198730,532.100464 540.140564,525.337585 540.608093,518.544922 
	C540.951721,513.550903 539.560120,512.600891 535.127075,514.604187 
	C512.855042,524.669128 490.111786,533.649231 467.831543,543.660156 
	C458.166473,548.002869 450.005798,555.301453 441.590118,561.837830 
	C427.773895,572.568726 414.579712,584.055786 401.227081,595.356689 
	C382.578735,611.139587 371.281006,631.065308 365.458771,654.487183 
	C363.774170,661.263916 361.927246,668.019592 359.726410,674.642578 
	C357.969574,679.929504 357.548401,684.996643 359.701660,690.206604 
	C360.646790,692.493469 360.801788,694.406311 358.281738,696.243286 
	C355.816437,698.040100 355.373230,701.383850 354.200592,704.116760 
	C353.209320,706.426819 351.739807,706.285095 349.367798,706.666687 
	C341.727997,707.895569 334.800903,703.741577 327.373383,704.714172 
	C326.386841,704.843323 325.133820,705.425049 324.512512,704.611145 
	C320.318512,699.116943 313.571503,699.456604 307.945435,697.512024 
	C297.856873,694.025024 287.323395,691.080933 278.411407,685.501526 
	C267.537079,678.693542 258.562469,669.744873 257.498383,655.153503 
	C255.951019,633.935242 253.320984,612.796570 251.201065,591.619141 
	C248.997894,569.610229 246.875763,547.593201 244.672546,525.584290 
	C243.397034,512.842529 242.859848,499.955627 240.524719,487.406769 
	C236.369446,465.076477 235.059723,442.536835 234.943176,419.995605 
	C234.758148,384.213409 240.476730,349.114349 249.982361,314.618958 
	C253.290604,302.613586 255.795074,290.409454 256.589874,277.953705 
	C256.793945,274.755615 258.983612,274.681305 260.885132,274.070679 
	C283.230438,266.894989 305.597229,259.786133 327.958954,252.661530 
	C329.069244,252.307785 330.378448,252.235764 331.267609,251.585114 
	C337.994171,246.662903 343.244507,251.078979 349.407684,254.307022 
	C347.135071,255.533997 345.730194,256.857147 345.366577,259.157837 
	C341.756409,282.000549 335.984436,304.413513 331.778839,327.140564 
	C326.909943,353.452209 326.484070,379.930481 328.018646,406.570496 
	C329.741760,436.482605 333.747742,466.162079 336.498657,495.967377 
	C337.812683,510.204254 339.592316,524.398071 340.335510,538.687134 
	C340.404755,540.018250 340.245239,541.569336 341.670013,542.214966 
	C343.594666,543.087219 344.761261,541.393311 345.972656,540.395996 
	C366.194183,523.748230 387.580963,508.733215 409.492218,494.404083 
	C442.800049,472.622101 478.602814,455.607788 514.532043,438.814178 
	C525.697998,433.595123 536.906311,428.458008 548.209290,423.545898 
	C551.823059,421.975372 553.132324,419.269653 553.543579,415.854431 
	C555.986816,395.565155 558.267212,375.255981 560.770630,354.974304 
	C563.254089,334.853943 566.025940,314.769196 568.508911,294.648804 
	C571.664734,269.077057 574.606140,243.478912 577.736084,217.903915 
	C580.219360,197.612885 582.864258,177.341690 585.404114,157.057526 
	C586.808044,145.844833 588.222961,134.632309 589.457275,123.400414 
	C589.790405,120.369370 591.116089,119.266319 593.990234,119.770203 
	C620.675415,124.448616 647.359924,129.130066 674.041687,133.827942 
	C674.337219,133.879990 674.592163,134.162201 675.275696,134.598312 
	C675.029358,141.558884 672.639099,148.346008 671.123901,155.241409 
	C656.952393,219.731400 642.612793,284.184479 628.307983,348.645172 
	C625.678467,360.494659 622.934082,372.319061 620.385315,384.185699 
	C620.035278,385.815399 618.699158,387.894196 620.636963,389.294037 
	C622.311157,390.503418 624.157776,389.510498 625.863037,388.826172 
	C659.708130,375.243622 693.925171,362.609650 727.540161,348.424225 
	C738.677307,343.724426 750.373596,340.252960 761.640320,335.742035 
	C762.683167,335.324493 763.759827,334.927063 765.010864,335.415833 
	C783.464966,342.626770 802.585205,347.857483 821.303772,354.286133 
	C823.506104,355.042480 825.441101,355.589417 824.646851,358.657898 
	C824.443115,359.445038 825.111084,360.554688 825.580200,361.404968 
	C837.049805,382.196228 841.748291,404.851440 844.446777,428.155701 
	C845.621582,438.301636 846.014648,448.528748 845.286194,458.545990 
	C844.191833,473.594238 841.494263,488.528748 836.765869,503.014404 
	C826.304077,535.064514 812.501648,565.737427 798.657471,596.398254 
	C770.412170,658.953369 739.177551,720.070801 709.419678,781.898499 
	C705.736389,789.551025 702.235168,797.291077 698.616150,804.974792 
	C697.979065,806.327637 697.394226,807.804932 696.403931,808.870422 
	C694.380066,811.048218 692.844055,815.416138 689.384033,813.888550 
	C685.926758,812.362305 682.993042,809.146240 683.635010,804.313599 
	C684.497070,797.824707 686.823059,791.740051 688.643616,785.533081 
	C699.329651,749.098328 712.273987,713.412964 724.738464,677.568665 
	C744.419189,620.972290 764.710388,564.577087 782.642761,507.394348 
	C790.902222,481.056671 797.901917,454.325562 805.627625,427.817932 
	C807.968262,419.787140 809.252747,411.639221 810.010315,403.340912 
	C810.244995,400.770569 809.576294,399.354492 807.368347,398.130951 
	C798.626038,393.286346 789.967773,388.290405 781.260010,383.383148 
	C780.125977,382.744110 779.045532,382.193695 777.546875,382.942657 
	C720.834961,411.284149 664.129517,439.638977 607.310730,467.764954 
	C602.440735,470.175659 600.289551,473.267761 599.126099,478.477570 
	C585.212646,540.782104 570.194702,602.852539 557.163208,665.338257 
	C540.289734,746.245972 521.394958,826.696899 504.020355,907.486816 
	C497.935791,935.779297 491.522278,964.001099 485.129456,992.627563 
	C484.250000,993.000000 483.500000,993.000000 482.375000,993.000000 
z"/>
<path fill="#000000" opacity="1.000000" stroke="none" 
	d="
M360.989319,176.904678 
	C353.471069,187.381470 344.794312,195.913300 332.742371,200.353683 
	C316.009064,206.518875 300.858215,202.906067 287.338531,192.177765 
	C273.263885,181.009064 265.279449,165.805054 260.484314,148.749939 
	C251.984848,118.519379 254.833145,89.427956 269.899139,61.855797 
	C276.744965,49.327339 286.470459,39.282635 299.972839,33.738331 
	C318.786133,26.013277 340.530579,32.000099 354.572784,48.263496 
	C368.217377,64.066376 374.979980,82.639435 377.387390,103.117455 
	C380.211060,127.136482 376.202576,149.815689 364.581940,171.080490 
	C363.546936,172.974426 362.325500,174.766479 360.989319,176.904678 
z"/>
</svg>